<svg xmlns="http://www.w3.org/2000/svg" width="21" height="20" fill="none" viewBox="0 0 21 20">
  <path stroke="#D9D9D9" stroke-linecap="round" stroke-linejoin="round" stroke-width="2" d="M12.855 15h1.576a2.56 2.56 0 0 0 2.119-1.139l3.26-4.829c.222-.328.252-.754.077-1.111a1.053 1.053 0 0 0-1.74-.25l-2.587 2.895a3.639 3.639 0 0 1-4.105.96l-3.534-1.45a2.815 2.815 0 0 0-2.663.284l-3.742 2.558a1.205 1.205 0 0 0-.394 1.52c.286.586.982.824 1.554.53l3.107-1.592c.605-.31 1.266.305 1.023.953L5.054 19M5.54 2.5H2.616m1.95 3h-1.95M16.269 5c0 2.21-1.747 4-3.901 4-2.155 0-3.901-1.79-3.901-4s1.746-4 3.9-4c2.155 0 3.902 1.79 3.902 4Z"/>
</svg>
