<svg xmlns="http://www.w3.org/2000/svg" width="18" height="20" fill="none" viewBox="0 0 18 20">
  <path fill="#D9D9D9" stroke="#D9D9D9" stroke-width=".5" d="M9 .75c.82 0 1.599.275 2.77.685l.598.209c1.212.423 2.158.753 2.838 1.035.343.142.646.283.895.43.237.14.5.33.683.597.181.263.268.576.32.849.054.287.086.625.106 1.004.04.75.04 1.777.04 3.093v1.341c0 4.931-3.429 7.448-5.733 8.58l-.445.207-.022.01c-.277.123-.556.248-.88.333-.345.09-.706.127-1.17.127-.464 0-.825-.037-1.17-.127a3.952 3.952 0 0 1-.458-.152l-.422-.181-.022-.01C4.65 17.765.75 15.253.75 9.993v-1.34c0-1.317 0-2.344.04-3.094a7.79 7.79 0 0 1 .106-1.004c.052-.273.139-.585.32-.849.184-.267.446-.456.683-.597a7.32 7.32 0 0 1 .895-.43c.68-.282 1.626-.612 2.838-1.035l.597-.21C7.401 1.026 8.18.75 9 .75ZM2.48 9.795v.198c0 4.181 3.058 6.25 5.144 7.18.232.103.38.166.51.21V7.872L2.48 9.795Zm7.385 7.589a6.17 6.17 0 0 0 .511-.211c2.086-.93 5.143-2.999 5.144-7.18v-.198L9.864 7.87v9.513ZM8.135 2.65c-.35.1-.798.254-1.447.48l-.471.165c-1.244.434-2.142.748-2.769 1.008a5.61 5.61 0 0 0-.676.321c-.067.04-.11.07-.134.09a1.247 1.247 0 0 0-.042.17 6.159 6.159 0 0 0-.077.77c-.03.562-.036 1.307-.038 2.286l5.654-1.92V2.65Zm1.73 3.368 5.653 1.922a48.229 48.229 0 0 0-.037-2.287 6.137 6.137 0 0 0-.077-.77 1.193 1.193 0 0 0-.043-.168 1.124 1.124 0 0 0-.133-.09v-.001a5.558 5.558 0 0 0-.676-.321c-.627-.26-1.525-.574-2.769-1.008l-.47-.164a28.273 28.273 0 0 0-1.448-.48v3.367Z"/>
</svg>
