<svg xmlns="http://www.w3.org/2000/svg" width="21" height="25" fill="none" viewBox="0 0 21 25">
  <path fill="#fff" fill-rule="evenodd" d="M0 3.42v17.772A3.808 3.808 0 0 0 3.808 25h12.694a3.808 3.808 0 0 0 3.808-3.808V8.498a3.808 3.808 0 0 0-3.808-3.808H1.27A1.27 1.27 0 0 1 0 3.42Zm4.126 8.886c0-.526.426-.952.952-.952h10.155a.952.952 0 0 1 0 1.904H5.078a.952.952 0 0 1-.952-.952Zm0 4.443c0-.526.426-.952.952-.952h6.981a.952.952 0 0 1 0 1.904H5.078a.952.952 0 0 1-.952-.952Z" clip-rule="evenodd"/>
  <path fill="#fff" d="M.519 2.261c.442.199.75.643.75 1.16h15.233c.439 0 .864.055 1.27.16V2.538A2.539 2.539 0 0 0 14.874.026L1.167 1.984a1.355 1.355 0 0 0-.648.277Z"/>
</svg>
