<svg xmlns="http://www.w3.org/2000/svg" width="50" height="50" fill="none" viewBox="0 0 50 50">
  <path stroke="#fff" stroke-linecap="round" stroke-linejoin="round" stroke-width="3.5" d="M20.637 5.47c-1.03 2.474-3.92 3.591-6.354 2.468-4.026-1.858-8.203 2.32-6.345 6.345 1.123 2.433.006 5.324-2.468 6.354-3.878 1.616-3.878 7.11 0 8.726 2.474 1.03 3.591 3.92 2.468 6.354-1.858 4.026 2.32 8.203 6.345 6.345 2.433-1.123 5.324-.006 6.354 2.468 1.616 3.878 7.11 3.878 8.726 0 1.03-2.474 3.92-3.592 6.354-2.468 4.026 1.858 8.203-2.32 6.345-6.345-1.123-2.433-.006-5.324 2.468-6.354 3.878-1.616 3.878-7.11 0-8.726-2.474-1.03-3.592-3.92-2.468-6.354 1.858-4.026-2.32-8.203-6.345-6.345-2.433 1.123-5.324.006-6.354-2.468-1.616-3.878-7.11-3.878-8.726 0Z"/>
  <path stroke="#fff" stroke-width="3.5" d="M32.5 25a7.5 7.5 0 1 1-15 0 7.5 7.5 0 0 1 15 0Z"/>
</svg>
