<svg xmlns="http://www.w3.org/2000/svg" width="25" height="18" fill="none" viewBox="0 0 25 18">
  <path fill="#D9D9D9" fill-rule="evenodd" d="M0 3.214C0 1.44 1.403 0 3.133 0h7.518c1.73 0 3.133 1.44 3.133 3.214V4.5c0 .402-.072.787-.204 1.141.304.198.573.449.794.74a3.157 3.157 0 0 1 1.082-1.066l1.085-.643c1.499-.887 3.415-.36 4.28 1.177l3.759 6.68c.865 1.538.352 3.504-1.147 4.391l-1.085.643c-1.498.888-3.414.361-4.28-1.176l-3.203-5.694a3.24 3.24 0 0 1-.455.878 3.26 3.26 0 0 1 .627 1.929v1.286c0 1.775-1.403 3.214-3.133 3.214H4.386c-1.73 0-3.133-1.44-3.133-3.214V13.5c0-.724.233-1.391.626-1.929a3.255 3.255 0 0 1-.626-1.928V8.357c0-.402.072-.786.203-1.141A3.232 3.232 0 0 1 0 4.5V3.214ZM11.277 4.5c0 .355-.28.643-.626.643H3.133a.635.635 0 0 1-.627-.643V3.214c0-.355.28-.643.627-.643h7.518c.346 0 .626.288.626.643V4.5ZM3.76 8.357c0-.355.28-.643.627-.643h7.518c.346 0 .627.288.627.643v1.286a.635.635 0 0 1-.627.643H4.386a.635.635 0 0 1-.627-.643V8.357Zm.627 4.5a.635.635 0 0 0-.627.643v1.286c0 .355.28.643.627.643h7.518a.635.635 0 0 0 .627-.643V13.5a.635.635 0 0 0-.627-.643H4.386ZM17.795 6.9a.618.618 0 0 1 .855.235l3.76 6.681c.172.308.07.7-.23.878l-1.085.643a.618.618 0 0 1-.856-.235l-3.76-6.68a.652.652 0 0 1 .23-.879l1.085-.643Z" clip-rule="evenodd"/>
</svg>
