<svg xmlns="http://www.w3.org/2000/svg" width="20" height="20" fill="none" viewBox="0 0 20 20">
  <path stroke="#D9D9D9" stroke-linecap="round" stroke-linejoin="round" stroke-width="2" d="m10 1 2.036 5.162c.188.476.282.714.425.915.128.178.284.334.462.462.2.143.439.237.915.425L19 10l-5.162 2.036c-.476.188-.714.282-.915.425a1.998 1.998 0 0 0-.462.462c-.143.2-.237.439-.425.915L10 19l-2.036-5.162c-.188-.476-.282-.714-.425-.915a1.999 1.999 0 0 0-.462-.462c-.2-.143-.439-.237-.915-.425L1 10l5.162-2.036c.476-.188.714-.282.915-.425a2 2 0 0 0 .462-.462c.143-.2.237-.439.425-.915L10 1Z"/>
</svg>
