<svg xmlns="http://www.w3.org/2000/svg" width="27" height="27" fill="none" viewBox="0 0 27 27">
  <path stroke="#fff" stroke-linecap="round" stroke-width="2" d="M26 6.341c0-1.449 0-2.174-.393-2.72-.393-.545-1.081-.774-2.456-1.232l-1.618-.54c-1.899-.633-2.848-.949-3.804-.821s-1.788.683-3.454 1.793l-1.92 1.28c-1.3.867-1.95 1.3-2.679 1.473-.268.063-.541.1-.816.11-.749.025-1.49-.222-2.972-.716-1.942-.648-2.913-.971-3.651-.643a2.083 2.083 0 0 0-.692.499C1 5.42 1 6.444 1 8.49v5.645m25-2.463v5.959c0 2.046 0 3.07-.545 3.667a2.081 2.081 0 0 1-.691.498c-.74.328-1.71.005-3.651-.642-1.483-.494-2.224-.741-2.973-.716a4.16 4.16 0 0 0-.816.11c-.73.172-1.38.605-2.68 1.472l-1.92 1.28c-1.665 1.11-2.498 1.665-3.453 1.793-.956.128-1.905-.188-3.804-.821l-1.618-.54c-1.375-.458-2.063-.687-2.456-1.233-.372-.516-.392-1.193-.393-2.494m16.667-18.75v4.861m0 13.889v-8.333M9.333 24.866v-4.861m0-13.889v8.333"/>
</svg>
