<svg xmlns="http://www.w3.org/2000/svg" width="18" height="25" fill="none" viewBox="0 0 18 25">
  <path fill="#fff" d="M17.184 17.638s-.364-8.244-5.518-10.642c.378-.576.743-1.161 1.088-1.757.454-.785.88-1.599 1.18-2.456.26-.74.238-1.954-.466-2.475-.612-.452-1.508-.32-2.19-.151-.56.137-1.095.363-1.628.582-.372.153-.75.3-1.135.415-.412.122-.742.224-1.269-.067-.137-.076-.273-.152-.414-.22-.429-.21-.856-.34-1.337-.339-.874.003-1.765.475-2.186 1.252-.37.685-.287 1.34.012 2.014.432.973 1.224 1.83 1.91 2.628.146.17.294.34.444.508C.383 9.24.011 17.638.011 17.638S-.675 25 8.598 25c9.779 0 8.586-7.362 8.586-7.362Zm-5.88.983a2.641 2.641 0 0 1-1.223 1.421c-.168.094-.35.17-.542.229v.482c0 .42-.34.762-.762.762h-.082a.762.762 0 0 1-.762-.762v-.4a2.961 2.961 0 0 1-1.186-.516 2.91 2.91 0 0 1-.607-.601 2.824 2.824 0 0 1-.312-.53.763.763 0 0 1 .246-.928l.126-.091a.76.76 0 0 1 1.113.24c.04.073.086.142.136.204a1.453 1.453 0 0 0 .69.484c.132.042.27.064.411.064.187 0 .354-.026.495-.078a.945.945 0 0 0 .328-.196.795.795 0 0 0 .192-.293c.05-.126.074-.273.074-.438a.782.782 0 0 0-.083-.39.996.996 0 0 0-.267-.3 2.363 2.363 0 0 0-.463-.272c-.208-.093-.42-.186-.634-.276a9.726 9.726 0 0 1-.679-.315 3.005 3.005 0 0 1-.677-.472 2.293 2.293 0 0 1-.514-.713 2.362 2.362 0 0 1-.199-1 2.369 2.369 0 0 1 .628-1.617 2.49 2.49 0 0 1 .715-.533c.147-.074.303-.135.467-.182v-.41c0-.42.341-.762.762-.762h.082c.421 0 .762.341.762.762v.382a2.758 2.758 0 0 1 1.524.965.763.763 0 0 1-.02.968l-.122.143a.762.762 0 0 1-1.13.028 1.83 1.83 0 0 0-.379-.3 1.35 1.35 0 0 0-.294-.125 1.258 1.258 0 0 0-.708.021.812.812 0 0 0-.273.153.587.587 0 0 0-.205.453c0 .14.026.252.075.331a.937.937 0 0 0 .263.273c.137.097.297.185.476.261l.646.278c.233.1.465.212.69.333.252.136.482.306.683.505.212.211.384.465.51.758.128.295.194.65.194 1.052 0 .33-.056.649-.165.948Z"/>
</svg>
