<svg xmlns="http://www.w3.org/2000/svg" width="19" height="20" fill="none" viewBox="0 0 19 20">
  <path fill="#D9D9D9" d="M6.139 10.255 2.61 9.282a.333.333 0 0 0-.41.233l-.28 1.017c-.183.662-.455.706-.604 1.245-.149.54.22.641.072 1.18-.149.54-.518.438-.667.978-.149.54.22.641.072 1.18-.15.54-.518.438-.667.978-.136.493.137.845-.08 1.423-.234.85.416 2.092 1.554 2.406a2.138 2.138 0 0 0 2.63-1.492l1.861-6.747.28-1.018a.333.333 0 0 0-.232-.41Zm12.031 7.261c-.216-.578.058-.93-.079-1.423-.148-.54-.517-.438-.666-.977-.149-.54.22-.642.071-1.181-.148-.54-.518-.438-.667-.977-.148-.54.22-.641.072-1.18-.149-.54-.42-.584-.603-1.246l-.281-1.017a.333.333 0 0 0-.41-.233l-3.527.973a.334.334 0 0 0-.233.41l.28 1.018 1.862 6.747a2.137 2.137 0 0 0 2.628 1.492c1.138-.314 1.788-1.556 1.553-2.406ZM12.594 4.742a3.651 3.651 0 0 0-.123-2.51 3.666 3.666 0 0 0-2.28-2.068 3.663 3.663 0 0 0-4.118 1.447 3.635 3.635 0 0 0-.46.958l-.005.014L3.743 9.08l1.552.429L7.1 3.22l.005.002a2.059 2.059 0 0 1 1.39-1.52A2.037 2.037 0 0 1 9.9 1.77a2.055 2.055 0 0 1 1.157 1.276 2.05 2.05 0 0 1-1.344 2.561 2.05 2.05 0 0 1-2.41-.984l-.53 1.846a3.658 3.658 0 0 0 3.755.553 3.666 3.666 0 0 0 2.067-2.281Zm-.521 1.814.848 2.952 1.553-.428-1.31-4.56a4.138 4.138 0 0 1-1.09 2.036Z"/>
</svg>
